<svg id="SvgjsSvg1008" xmlns="http://www.w3.org/2000/svg" version="1.1" xmlns:xlink="http://www.w3.org/1999/xlink" xmlns:svgjs="http://svgjs.com/svgjs" width="28" height="34" viewBox="0 0 28 34"><title>Forma 1</title><desc>Created with Avocode.</desc><defs id="SvgjsDefs1009"></defs><path id="SvgjsPath1010" d="M462.104 1589.34C462.303 1589.75 462.80199999999996 1590.07 463.26599999999996 1590.08L464.40599999999995 1590.1C464.34 1590.3899999999999 464.304 1590.6799999999998 464.304 1590.99C464.304 1593.19 466.11499999999995 1594.98 468.34 1594.98C470.566 1594.98 472.37699999999995 1593.19 472.37699999999995 1590.99C472.37699999999995 1588.79 470.566 1587 468.34099999999995 1587C467.549 1587 466.811 1587.23 466.18699999999995 1587.62L462.47299999999996 1587.61C462.18499999999995 1587.61 461.94199999999995 1587.7299999999998 461.80699999999996 1587.9399999999998C461.67099999999994 1588.1499999999999 461.66499999999996 1588.4199999999998 461.789 1588.6799999999998ZM460.635 1609.66H459.943V1604.53C459.943 1603.87 459.401 1603.33 458.734 1603.33H452.10999999999996C451.44399999999996 1603.33 450.90099999999995 1603.87 450.90099999999995 1604.53V1609.66H450.20899999999995C449.54299999999995 1609.66 449.0009999999999 1610.2 449.0009999999999 1610.8600000000001V1619.8100000000002C449.0009999999999 1620.4600000000003 449.5429999999999 1621.0000000000002 450.20899999999995 1621.0000000000002H460.63499999999993C461.30099999999993 1621.0000000000002 461.84399999999994 1620.4600000000003 461.84399999999994 1619.8100000000002V1610.8600000000001C461.84399999999994 1610.2 461.30199999999996 1609.66 460.63499999999993 1609.66ZM455.422 1606.12L456.939 1607.81H456.14700000000005V1609.9199999999998H454.69700000000006V1607.81H453.9050000000001ZM456.482 1619.11H454.362V1616.03H453.20500000000004L455.422 1613.56L457.639 1616.03H456.482ZM476.721 1601.24L473.63100000000003 1596.98C473.29400000000004 1596.52 472.77000000000004 1596.17 472.02900000000005 1596.17H455.3860000000001C454.7200000000001 1596.17 454.17800000000005 1596.71 454.17800000000005 1597.3700000000001V1598.0600000000002C454.17800000000005 1598.7200000000003 454.72 1599.2500000000002 455.3860000000001 1599.2500000000002H464.0900000000001V1619.5700000000002C464.0900000000001 1620.3600000000001 464.74000000000007 1621.0000000000002 465.5400000000001 1621.0000000000002H466.53100000000006C467.3310000000001 1621.0000000000002 467.98100000000005 1620.3600000000001 467.98100000000005 1619.5700000000002V1609.6200000000001H468.70000000000005V1619.5700000000002C468.70000000000005 1620.3600000000001 469.35100000000006 1621.0000000000002 470.15000000000003 1621.0000000000002H471.14200000000005C471.94100000000003 1621.0000000000002 472.59200000000004 1620.3600000000001 472.59200000000004 1619.5700000000002V1607.5600000000002H472.76800000000003C473.35200000000003 1607.5600000000002 474.03200000000004 1607.2000000000003 474.34900000000005 1606.7100000000003L476.766 1603.0100000000002C477.094 1602.5000000000002 477.074 1601.7300000000002 476.721 1601.2400000000002ZM472.592 1600.2L473.865 1602.01C474.021 1602.23 474.02 1602.6299999999999 473.862 1602.85L472.59200000000004 1604.62Z " fill="#f1b333" fill-opacity="1" transform="matrix(1,0,0,1,-449,-1587)"></path></svg>