<svg id="SvgjsSvg1010" xmlns="http://www.w3.org/2000/svg" version="1.1" xmlns:xlink="http://www.w3.org/1999/xlink" xmlns:svgjs="http://svgjs.com/svgjs" width="35" height="45" viewBox="0 0 35 45"><title>Shape 1</title><desc>Created with Avocode.</desc><defs id="SvgjsDefs1011"></defs><path id="SvgjsPath1012" d="M748.115 1060.08C747.84 1057.6899999999998 748.069 1055.3899999999999 748.692 1053.27C750.763 1046.21 757.26 1041.01 764.966 1040.92V1036.3000000000002C764.966 1036.0500000000002 765.287 1035.91 765.497 1036.0700000000002L774.9989999999999 1043.0500000000002C775.1549999999999 1043.17 775.1549999999999 1043.4 774.9989999999999 1043.5100000000002L765.5059999999999 1050.4900000000002C765.2869999999998 1050.6500000000003 764.9749999999999 1050.5100000000002 764.9749999999999 1050.2600000000002V1045.6500000000003C759.9079999999999 1045.7300000000002 755.5829999999999 1048.8500000000004 753.723 1053.2700000000002C753.0169999999999 1054.9400000000003 752.66 1056.7800000000002 752.761 1058.7100000000003C752.8979999999999 1061.3700000000003 753.8969999999999 1063.8100000000002 755.473 1065.7900000000002C756.3159999999999 1066.8500000000001 756.1139999999999 1068.38 755.024 1069.1800000000003C753.988 1069.9400000000003 752.541 1069.7300000000002 751.744 1068.7200000000003C749.792 1066.2900000000002 748.491 1063.3200000000002 748.115 1060.0800000000002ZM775.549 1051.21C777.134 1053.18 778.1329999999999 1055.63 778.261 1058.29C778.362 1060.23 777.996 1062.07 777.299 1063.73C775.439 1068.15 771.114 1071.28 766.047 1071.35V1066.74C766.047 1066.49 765.726 1066.35 765.5160000000001 1066.51L756.0140000000001 1073.49C755.8580000000002 1073.61 755.8580000000002 1073.84 756.0140000000001 1073.95L765.5060000000001 1080.93C765.7260000000001 1081.0900000000001 766.0380000000001 1080.95 766.0380000000001 1080.7V1076.0800000000002C773.7440000000001 1076.0000000000002 780.2500000000001 1070.8000000000002 782.3120000000001 1063.7300000000002C782.9350000000002 1061.6100000000004 783.1550000000001 1059.3100000000002 782.8890000000001 1056.9200000000003C782.5220000000002 1053.6800000000003 781.2210000000001 1050.7100000000003 779.2690000000001 1048.2800000000002C778.4630000000001 1047.2700000000002 777.0240000000001 1047.0600000000002 775.9890000000001 1047.8200000000002C774.9080000000001 1048.6200000000001 774.7060000000001 1050.15 775.5490000000001 1051.2100000000003Z " fill="#ca6a0c" fill-opacity="1" transform="matrix(1,0,0,1,-748,-1036)"></path></svg>