<svg id="SvgjsSvg1000" xmlns="http://www.w3.org/2000/svg" version="1.1" xmlns:xlink="http://www.w3.org/1999/xlink" xmlns:svgjs="http://svgjs.com/svgjs" width="41" height="91" viewBox="0 0 41 91"><title>Forma 1</title><desc>Created with Avocode.</desc><defs id="SvgjsDefs1001"></defs><path id="SvgjsPath1007" d="M792.884 1179.11C793.826 1177.75 794.188 1176.11 793.902 1174.49C793.721 1173.47 793.4870000000001 1172.14 793.278 1170.96C792.8820000000001 1168.74 791.2 1166.99 788.9920000000001 1166.5C784.739 1165.57 781.4350000000001 1163.4 779.912 1162.25C780.676 1160.65 781.118 1158.72 781.118 1156.63C781.118 1150.2600000000002 777.014 1148 773.5 1148C769.986 1148 765.882 1150.26 765.882 1156.63C765.882 1158.72 766.323 1160.65 767.088 1162.25C765.5649999999999 1163.4 762.26 1165.57 758.007 1166.5C755.799 1166.99 754.117 1168.74 753.722 1170.96C753.513 1172.14 753.279 1173.47 753.098 1174.49C752.812 1176.11 753.173 1177.75 754.116 1179.11L760.122 1187.75C762.117 1190.63 762.285 1194.44 760.549 1197.48C760.0649999999999 1198.32 760.071 1199.3700000000001 760.566 1200.21C761.061 1201.05 761.979 1201.57 762.962 1201.57H767.56V1213.05H762.478C760.37 1213.05 758.654 1214.75 758.654 1216.83V1227.78H757.233C756.175 1227.78 755.3169999999999 1228.6299999999999 755.3169999999999 1229.67V1237.1100000000001C755.3169999999999 1238.15 756.1749999999998 1239.0000000000002 757.233 1239.0000000000002H789.7669999999999C790.8249999999999 1239.0000000000002 791.6819999999999 1238.1500000000003 791.6819999999999 1237.1100000000001V1229.67C791.6819999999999 1228.63 790.8249999999999 1227.78 789.7669999999999 1227.78H788.3449999999999V1216.83C788.3449999999999 1214.75 786.6289999999999 1213.05 784.521 1213.05H779.4409999999999V1201.57H784.0369999999999C785.0199999999999 1201.57 785.9379999999999 1201.05 786.4329999999999 1200.21C786.9279999999999 1199.3700000000001 786.9349999999998 1198.32 786.4509999999999 1197.48C784.7149999999999 1194.44 784.882 1190.63 786.8779999999999 1187.75ZM773.5 1151.79C775.942 1151.79 777.287 1153.51 777.287 1156.6299999999999C777.287 1160.09 775.517 1163.1299999999999 773.5 1163.1299999999999C771.483 1163.1299999999999 769.713 1160.09 769.713 1156.6299999999999C769.713 1153.51 771.058 1151.79 773.5 1151.79ZM756.872 1175.14C757.053 1174.1200000000001 757.2869999999999 1172.7900000000002 757.496 1171.6200000000001C757.622 1170.91 758.149 1170.3500000000001 758.838 1170.2C763.755 1169.1200000000001 767.515 1166.69 769.36 1165.31C770.545 1166.33 771.962 1166.9099999999999 773.5 1166.9099999999999C775.038 1166.9099999999999 776.454 1166.33 777.64 1165.31C779.484 1166.69 783.245 1169.12 788.161 1170.2C788.851 1170.3500000000001 789.3779999999999 1170.91 789.5039999999999 1171.6200000000001C789.7129999999999 1172.7900000000002 789.9469999999999 1174.1200000000001 790.1279999999999 1175.14C790.241 1175.7800000000002 790.098 1176.43 789.7259999999999 1176.97L787.7489999999999 1179.81L779.81 1181.6299999999999L775.3679999999999 1179.84V1176.06C775.3679999999999 1175.02 774.511 1174.1699999999998 773.453 1174.1699999999998C772.395 1174.1699999999998 771.5369999999999 1175.0199999999998 771.5369999999999 1176.06V1179.84L767.0959999999999 1181.6299999999999L759.2679999999999 1179.84L757.2729999999999 1176.97C756.9019999999999 1176.43 756.7589999999999 1175.78 756.872 1175.14ZM787.851 1235.21H759.149V1231.57H787.851ZM784.513 1227.78H762.484L762.4780000000001 1216.84L784.513 1216.83ZM775.609 1213.05H771.3910000000001V1201.57H775.609ZM783.72 1185.61C781.234 1189.1899999999998 780.756 1193.8 782.359 1197.78H764.64C766.244 1193.8 765.766 1189.19 763.279 1185.61L762.483 1184.4599999999998L766.824 1185.4599999999998C766.966 1185.4899999999998 767.112 1185.5099999999998 767.257 1185.5099999999998C767.5039999999999 1185.5099999999998 767.75 1185.4599999999998 767.981 1185.3699999999997L773.453 1183.1599999999996L778.925 1185.3699999999997C779.156 1185.4599999999996 779.4029999999999 1185.5099999999998 779.65 1185.5099999999998C779.795 1185.5099999999998 779.9399999999999 1185.4899999999998 780.083 1185.4599999999998L784.534 1184.4399999999998Z " fill="#ced247" fill-opacity="1" transform="matrix(1,0,0,1,-753,-1148)"></path></svg>