<svg id="SvgjsSvg1035" xmlns="http://www.w3.org/2000/svg" version="1.1" xmlns:xlink="http://www.w3.org/1999/xlink" xmlns:svgjs="http://svgjs.com/svgjs" width="99" height="67" viewBox="0 0 99 67"><title>Shape 1</title><desc>Created with Avocode.</desc><defs id="SvgjsDefs1036"></defs><path id="SvgjsPath1037" d="M1197.91 1659.79L1254.8000000000002 1646.62L1255.7300000000002 1650.62L1261.4700000000003 1649.3L1259.8800000000003 1642.4199999999998L1258.7000000000003 1637.31L1264.5000000000002 1635.96L1263.8400000000001 1633.0900000000001C1262.5100000000002 1627.3500000000001 1259.2400000000002 1622.18 1254.6200000000001 1618.5500000000002C1250.0700000000002 1614.9700000000003 1244.4 1613.0000000000002 1238.64 1613.0000000000002C1236.69 1613.0000000000002 1234.73 1613.2200000000003 1232.8100000000002 1613.6700000000003L1169.0000000000002 1628.4200000000003L1174.7500000000002 1653.3500000000004V1680.0000000000005H1268.0000000000002V1663.6000000000004H1197.9100000000003ZM1197.91 1653.73V1651.38L1252.96 1638.64L1253.48 1640.8700000000001ZM1192.02 1674.1H1180.6399999999999V1647.8999999999999C1180.6399999999999 1644.7599999999998 1183.1899999999998 1642.1999999999998 1186.33 1642.1999999999998C1189.47 1642.1999999999998 1192.02 1644.7599999999998 1192.02 1647.8999999999999ZM1197.63 1645.37C1197.6200000000001 1645.3 1197.6000000000001 1645.2299999999998 1197.5800000000002 1645.1499999999999C1197.5600000000002 1645.09 1197.5500000000002 1645.0199999999998 1197.5300000000002 1644.9499999999998C1197.5000000000002 1644.83 1197.4600000000003 1644.7099999999998 1197.4300000000003 1644.59C1197.4100000000003 1644.54 1197.4000000000003 1644.49 1197.3800000000003 1644.4399999999998C1197.3300000000004 1644.2699999999998 1197.2700000000004 1644.1 1197.2100000000003 1643.9399999999998C1197.2000000000003 1643.8899999999999 1197.1800000000003 1643.84 1197.1600000000003 1643.7999999999997C1197.1100000000004 1643.6799999999998 1197.0700000000004 1643.5599999999997 1197.0200000000002 1643.4399999999998C1196.9900000000002 1643.3799999999999 1196.9600000000003 1643.32 1196.9400000000003 1643.2499999999998C1196.8900000000003 1643.1499999999999 1196.8500000000004 1643.0599999999997 1196.8000000000002 1642.9599999999998C1196.7700000000002 1642.8899999999999 1196.7400000000002 1642.8299999999997 1196.7100000000003 1642.7599999999998C1196.6600000000003 1642.6699999999998 1196.6100000000004 1642.5799999999997 1196.5700000000002 1642.4899999999998C1196.5300000000002 1642.4199999999998 1196.5000000000002 1642.3499999999997 1196.4600000000003 1642.2899999999997C1196.4100000000003 1642.1999999999998 1196.3600000000004 1642.1099999999997 1196.3000000000002 1642.0199999999998C1196.2700000000002 1641.9599999999998 1196.2300000000002 1641.8899999999996 1196.1900000000003 1641.8299999999997C1196.1400000000003 1641.7399999999998 1196.0800000000004 1641.6499999999996 1196.0100000000002 1641.5499999999997C1195.9800000000002 1641.4999999999998 1195.9500000000003 1641.4399999999998 1195.9100000000003 1641.3899999999996C1195.8200000000004 1641.2599999999995 1195.7200000000003 1641.1199999999997 1195.6300000000003 1640.9899999999996C1195.6000000000004 1640.9599999999996 1195.5800000000004 1640.9299999999996 1195.5500000000004 1640.8999999999996C1195.4700000000005 1640.7899999999997 1195.3800000000003 1640.6699999999996 1195.2900000000004 1640.5599999999997C1195.2500000000005 1640.5099999999998 1195.2000000000005 1640.4599999999998 1195.1600000000003 1640.4099999999996C1195.0900000000004 1640.3299999999997 1195.0200000000002 1640.2499999999995 1194.9500000000003 1640.1699999999996C1194.9000000000003 1640.1099999999997 1194.8500000000004 1640.0599999999997 1194.8000000000002 1639.9999999999995C1194.7300000000002 1639.9299999999996 1194.66 1639.8599999999994 1194.5900000000001 1639.7899999999995C1194.5400000000002 1639.7299999999996 1194.4900000000002 1639.6799999999996 1194.43 1639.6299999999994C1194.3600000000001 1639.5499999999995 1194.29 1639.4899999999993 1194.21 1639.4199999999994C1194.16 1639.3699999999994 1194.1000000000001 1639.3199999999995 1194.05 1639.2699999999993C1193.97 1639.1999999999994 1193.8899999999999 1639.1299999999992 1193.81 1639.0599999999993C1193.76 1639.0099999999993 1193.71 1638.9699999999993 1193.6499999999999 1638.9299999999992C1193.55 1638.8399999999992 1193.4499999999998 1638.769999999999 1193.35 1638.6899999999991C1193.31 1638.6599999999992 1193.28 1638.6299999999992 1193.24 1638.5999999999992C1193.11 1638.4999999999993 1192.97 1638.3999999999992 1192.83 1638.3099999999993C1192.78 1638.2699999999993 1192.73 1638.2399999999993 1192.6799999999998 1638.2099999999994C1192.58 1638.1399999999994 1192.4799999999998 1638.0799999999992 1192.3899999999999 1638.0199999999993C1192.32 1637.9799999999993 1192.2599999999998 1637.9499999999994 1192.1999999999998 1637.9099999999994C1192.11 1637.8599999999994 1192.0199999999998 1637.8099999999995 1191.9299999999998 1637.7499999999993C1191.87 1637.7199999999993 1191.7999999999997 1637.6799999999994 1191.7399999999998 1637.6499999999994C1191.6399999999999 1637.5999999999995 1191.5499999999997 1637.5499999999995 1191.4599999999998 1637.5099999999993C1191.3899999999999 1637.4799999999993 1191.3299999999997 1637.4399999999994 1191.2599999999998 1637.4099999999994C1191.1599999999999 1637.3699999999994 1191.0699999999997 1637.3199999999995 1190.9699999999998 1637.2799999999993C1190.9099999999999 1637.2499999999993 1190.8399999999997 1637.2199999999993 1190.7799999999997 1637.1899999999994C1190.6699999999998 1637.1499999999994 1190.5499999999997 1637.0999999999995 1190.4399999999998 1637.0599999999993C1190.3899999999999 1637.0399999999993 1190.34 1637.0199999999993 1190.2799999999997 1636.9999999999993C1190.1199999999997 1636.9399999999994 1189.9499999999998 1636.8799999999994 1189.7899999999997 1636.8299999999992C1189.7399999999998 1636.8199999999993 1189.6999999999998 1636.8099999999993 1189.6599999999996 1636.7899999999993C1189.5299999999995 1636.7599999999993 1189.3999999999996 1636.7199999999993 1189.2699999999995 1636.6799999999994C1189.2099999999996 1636.6699999999994 1189.1399999999994 1636.6499999999994 1189.0699999999995 1636.6399999999994C1188.9699999999996 1636.6099999999994 1188.8599999999994 1636.5799999999995 1188.7499999999995 1636.5599999999995C1188.6699999999996 1636.5399999999995 1188.5999999999995 1636.5299999999995 1188.5299999999995 1636.5199999999995C1188.4199999999996 1636.4999999999995 1188.3199999999995 1636.4799999999996 1188.2099999999996 1636.4599999999996C1188.1399999999996 1636.4499999999996 1188.0599999999995 1636.4399999999996 1187.9899999999996 1636.4199999999996C1187.8799999999997 1636.4099999999996 1187.7699999999995 1636.3999999999996 1187.6599999999996 1636.3799999999997C1187.5899999999997 1636.3699999999997 1187.5099999999995 1636.3699999999997 1187.4399999999996 1636.3599999999997C1187.3199999999997 1636.3499999999997 1187.1999999999996 1636.3399999999997 1187.0799999999997 1636.3299999999997C1187.0199999999998 1636.3299999999997 1186.9499999999996 1636.3199999999997 1186.8899999999996 1636.3199999999997C1186.7099999999996 1636.3099999999997 1186.5399999999997 1636.3099999999997 1186.3599999999997 1636.3099999999997C1186.3499999999997 1636.3099999999997 1186.3399999999997 1636.2999999999997 1186.3299999999997 1636.2999999999997C1186.1199999999997 1636.2999999999997 1185.9199999999996 1636.3099999999997 1185.7099999999998 1636.3199999999997C1185.6499999999999 1636.3199999999997 1185.59 1636.3299999999997 1185.5299999999997 1636.3399999999997C1185.3899999999996 1636.3399999999997 1185.2499999999998 1636.3499999999997 1185.1099999999997 1636.3699999999997C1185.0299999999997 1636.3799999999997 1184.9599999999996 1636.3899999999996 1184.8799999999997 1636.3999999999996C1184.7599999999998 1636.4099999999996 1184.6299999999997 1636.4299999999996 1184.5099999999998 1636.4499999999996C1184.4299999999998 1636.4599999999996 1184.3499999999997 1636.4799999999996 1184.2699999999998 1636.4899999999996C1184.1499999999999 1636.5099999999995 1184.0399999999997 1636.5299999999995 1183.9199999999998 1636.5599999999995C1183.84 1636.5799999999995 1183.7599999999998 1636.5999999999995 1183.6799999999998 1636.6199999999994C1183.56 1636.6399999999994 1183.4499999999998 1636.6699999999994 1183.34 1636.6999999999994C1183.26 1636.7199999999993 1183.1799999999998 1636.7399999999993 1183.1 1636.7699999999993C1182.99 1636.7999999999993 1182.8799999999999 1636.8299999999992 1182.78 1636.8599999999992C1182.7 1636.8899999999992 1182.61 1636.9199999999992 1182.53 1636.9499999999991C1182.43 1636.979999999999 1182.33 1637.019999999999 1182.23 1637.059999999999C1182.14 1637.089999999999 1182.06 1637.119999999999 1181.98 1637.159999999999C1181.88 1637.199999999999 1181.78 1637.2399999999989 1181.68 1637.2799999999988C1181.6000000000001 1637.3199999999988 1181.53 1637.3499999999988 1181.45 1637.3899999999987C1181.3500000000001 1637.4399999999987 1181.25 1637.4799999999987 1181.16 1637.5299999999988C1181.0800000000002 1637.5699999999988 1181 1637.6099999999988 1180.93 1637.6499999999987C1180.8300000000002 1637.6999999999987 1180.74 1637.7499999999986 1180.64 1637.8099999999988C1180.5700000000002 1637.8499999999988 1180.49 1637.8899999999987 1180.42 1637.9299999999987C1180.3300000000002 1637.9899999999986 1180.23 1638.0499999999986 1180.14 1638.1099999999988C1180.0700000000002 1638.1499999999987 1180 1638.1999999999987 1179.93 1638.2399999999989C1179.8400000000001 1638.2999999999988 1179.75 1638.369999999999 1179.66 1638.429999999999C1179.5900000000001 1638.4799999999989 1179.52 1638.5299999999988 1179.46 1638.569999999999C1179.3700000000001 1638.639999999999 1179.28 1638.7199999999991 1179.18 1638.789999999999C1179.1200000000001 1638.829999999999 1179.0600000000002 1638.879999999999 1179.01 1638.9299999999992C1178.91 1639.009999999999 1178.81 1639.0899999999992 1178.72 1639.1699999999992C1178.67 1639.2199999999991 1178.6200000000001 1639.259999999999 1178.57 1639.2999999999993C1178.45 1639.4099999999992 1178.33 1639.5199999999993 1178.22 1639.6399999999992C1178.2 1639.6599999999992 1178.17 1639.6799999999992 1178.15 1639.6999999999991C1178.02 1639.8399999999992 1177.88 1639.979999999999 1177.75 1640.1199999999992C1177.75 1640.1199999999992 1177.75 1640.1199999999992 1177.75 1640.1299999999992L1176.07 1632.8399999999992L1234.12 1619.4199999999992L1234.1599999999999 1619.4099999999992C1235.6399999999999 1619.0699999999993 1237.1499999999999 1618.8999999999992 1238.6499999999999 1618.8999999999992C1243.09 1618.8999999999992 1247.4699999999998 1620.4199999999992 1250.9799999999998 1623.1899999999991C1253.8199999999997 1625.4199999999992 1255.9399999999998 1628.289999999999 1257.2299999999998 1631.5899999999992ZM1262.11 1674.1H1197.9099999999999V1669.5H1262.11Z " fill="#ced247" fill-opacity="1" transform="matrix(1,0,0,1,-1169,-1613)"></path></svg>