<svg id="SvgjsSvg1032" xmlns="http://www.w3.org/2000/svg" version="1.1" xmlns:xlink="http://www.w3.org/1999/xlink" xmlns:svgjs="http://svgjs.com/svgjs" width="93" height="48" viewBox="0 0 93 48"><title>Forma 1</title><desc>Created with Avocode.</desc><defs id="SvgjsDefs1033"></defs><path id="SvgjsPath1034" d="M1045.88 1641.33C1045.8200000000002 1639.49 1044.44 1637.98 1042.6000000000001 1637.75L1041.15 1637.56L1022.46 1623.8799999999999C1018.82 1621.2099999999998 1014.23 1620.34 1009.86 1621.51C1008.29 1621.92 1007.36 1623.52 1007.78 1625.08C1008.1999999999999 1626.6399999999999 1009.8299999999999 1627.56 1011.38 1627.1499999999999C1014.01 1626.4499999999998 1016.78 1626.9599999999998 1018.97 1628.58L1030.2 1636.79C1027.89 1636.83 1025.5800000000002 1636.98 1023.2700000000001 1637.3C1019.7500000000001 1637.78 1016.2300000000001 1638.52 1012.9100000000001 1639.48L1011.1300000000001 1639.82C1004.2500000000001 1641.1699999999998 997.1610000000001 1641.1799999999998 990.2130000000001 1639.87L988.2080000000001 1639.5C984.7740000000001 1638.52 981.2460000000001 1637.78 977.7260000000001 1637.3C975.4180000000001 1636.98 973.1060000000001 1636.83 970.7980000000001 1636.79L982.0200000000001 1628.58C984.2160000000001 1626.97 986.988 1626.4499999999998 989.6190000000001 1627.1499999999999C991.1760000000002 1627.57 992.7950000000002 1626.6399999999999 993.2150000000001 1625.08C993.6350000000001 1623.52 992.7010000000001 1621.9199999999998 991.1340000000001 1621.51C986.7660000000001 1620.34 982.1740000000001 1621.21 978.5360000000002 1623.8799999999999L959.8390000000002 1637.56L958.4000000000002 1637.75C956.5590000000002 1637.98 955.1780000000002 1639.49 955.1160000000002 1641.33L954.9980000000002 1644.59C954.9480000000002 1646.1499999999999 955.8730000000002 1647.58 957.1590000000001 1648.07C957.7090000000001 1648.35 958.0630000000001 1648.83 958.0990000000002 1649.35L958.5180000000001 1655.49C959.2570000000002 1662.9 965.4540000000002 1668.63 972.9350000000002 1668.82L979.8240000000002 1669C984.9660000000002 1669 989.6740000000002 1666.4 992.4470000000002 1661.99L998.0050000000002 1652.29C998.3750000000002 1651.75 999.3940000000002 1651.55 1000.3100000000002 1651.55C1000.3200000000002 1651.55 1000.7200000000001 1651.54 1000.7200000000001 1651.54C1001.6100000000001 1651.54 1002.6500000000001 1651.78 1002.9400000000002 1652.21L1008.5800000000002 1662.04C1011.3300000000002 1666.3999999999999 1016.0300000000002 1669 1021.1800000000002 1669L1028.0600000000002 1668.82C1035.5400000000002 1668.6299999999999 1041.7400000000002 1662.8999999999999 1042.4800000000002 1655.4399999999998L1042.9000000000003 1649.35C1042.9400000000003 1648.83 1043.2900000000004 1648.35 1043.6900000000003 1648.1299999999999C1045.1200000000003 1647.58 1046.0500000000002 1646.1499999999999 1046.0000000000002 1644.59ZM1028.26 1643.33C1029.31 1643.33 1030.22 1643.3799999999999 1030.99 1643.49C1033.47 1643.82 1036.03 1645.44 1036.14 1648.33L1036.39 1654.61C1036.48 1656.76 1035.71 1658.81 1034.24 1660.3999999999999C1032.76 1661.9799999999998 1030.77 1662.8899999999999 1028.61 1662.9799999999998C1028.61 1662.9799999999998 1023.1999999999999 1663.1799999999998 1022.8999999999999 1663.1899999999998C1013.0499999999998 1663.1899999999998 1010.2599999999999 1653.4299999999998 1010.1499999999999 1653.0299999999997C1009.6899999999998 1651.2099999999998 1010.0199999999999 1649.2599999999998 1011.0499999999998 1647.6799999999998C1012.0899999999998 1646.09 1013.7599999999999 1644.9999999999998 1015.6299999999999 1644.6899999999998C1021.0299999999999 1643.7699999999998 1025.1599999999999 1643.33 1028.26 1643.33ZM978.112 1663.19C977.793 1663.18 972.391 1662.98 972.391 1662.98C970.231 1662.89 968.233 1661.98 966.76 1660.4C965.289 1658.8100000000002 964.52 1656.76 964.606 1654.6100000000001L964.857 1648.3300000000002C964.97 1645.44 967.523 1643.8200000000002 970.006 1643.4900000000002C973.0649999999999 1643.0800000000002 978.16 1643.4600000000003 985.3679999999999 1644.6900000000003C987.236 1645.0000000000002 988.9019999999999 1646.0900000000004 989.943 1647.6700000000003C990.98 1649.2600000000002 991.308 1651.2100000000003 990.85 1653.0200000000002C990.735 1653.4300000000003 987.945 1663.1900000000003 978.1120000000001 1663.1900000000003Z " fill="#ced247" fill-opacity="1" transform="matrix(1,0,0,1,-954,-1621)"></path></svg>