<svg id="SvgjsSvg1038" xmlns="http://www.w3.org/2000/svg" version="1.1" xmlns:xlink="http://www.w3.org/1999/xlink" xmlns:svgjs="http://svgjs.com/svgjs" width="58" height="81" viewBox="0 0 58 81"><title>Shape 1</title><desc>Created with Avocode.</desc><defs id="SvgjsDefs1039"></defs><path id="SvgjsPath1040" d="M1459.09 1630.41C1463.4499999999998 1630.41 1467 1626.8600000000001 1467 1622.49V1617.21C1467 1615.75 1465.82 1614.57 1464.36 1614.57C1462.9099999999999 1614.57 1461.7299999999998 1615.75 1461.7299999999998 1617.21V1622.49C1461.7299999999998 1623.95 1460.5399999999997 1625.13 1459.0899999999997 1625.13H1445.9099999999996V1611.92C1445.9099999999996 1607.5500000000002 1442.3599999999997 1604 1437.9999999999995 1604C1433.6399999999996 1604 1430.0899999999995 1607.55 1430.0899999999995 1611.92V1614.5700000000002H1416.9099999999994C1415.4599999999994 1614.5700000000002 1414.2699999999993 1613.38 1414.2699999999993 1611.92V1606.64C1414.2699999999993 1605.18 1413.0899999999992 1604 1411.6399999999992 1604C1410.1799999999992 1604 1408.999999999999 1605.18 1408.999999999999 1606.64V1611.92C1408.999999999999 1616.29 1412.549999999999 1619.8500000000001 1416.9099999999992 1619.8500000000001H1430.0899999999992V1640.9800000000002H1416.9099999999992C1415.4599999999991 1640.9800000000002 1414.269999999999 1639.7900000000002 1414.269999999999 1638.3400000000001V1633.0500000000002C1414.269999999999 1631.6000000000001 1413.089999999999 1630.41 1411.639999999999 1630.41C1410.179999999999 1630.41 1408.9999999999989 1631.6000000000001 1408.9999999999989 1633.0500000000002V1638.3400000000001C1408.9999999999989 1642.71 1412.5499999999988 1646.2600000000002 1416.909999999999 1646.2600000000002H1430.089999999999V1669.1500000000003H1427.449999999999C1423.089999999999 1669.1500000000003 1419.5499999999988 1672.7100000000003 1419.5499999999988 1677.0800000000004V1682.3600000000004C1419.5499999999988 1683.8200000000004 1420.7299999999989 1685.0000000000005 1422.179999999999 1685.0000000000005H1453.819999999999C1455.269999999999 1685.0000000000005 1456.4499999999991 1683.8200000000004 1456.4499999999991 1682.3600000000004V1677.0800000000004C1456.4499999999991 1672.7100000000005 1452.9099999999992 1669.1500000000003 1448.549999999999 1669.1500000000003H1445.909999999999V1656.8300000000004H1459.089999999999C1463.449999999999 1656.8300000000004 1466.999999999999 1653.2700000000004 1466.999999999999 1648.9000000000003V1643.6200000000003C1466.999999999999 1642.1600000000003 1465.819999999999 1640.9800000000002 1464.359999999999 1640.9800000000002C1462.909999999999 1640.9800000000002 1461.7299999999989 1642.1600000000003 1461.7299999999989 1643.6200000000003V1648.9000000000003C1461.7299999999989 1650.3600000000004 1460.5399999999988 1651.5400000000004 1459.0899999999988 1651.5400000000004H1445.9099999999987V1630.4100000000003ZM1438 1609.28C1439.45 1609.28 1440.64 1610.47 1440.64 1611.92V1669.15H1435.3600000000001V1611.92C1435.3600000000001 1610.47 1436.5500000000002 1609.28 1438.0000000000002 1609.28ZM1451.18 1677.08V1679.72H1424.8200000000002V1677.08C1424.8200000000002 1675.62 1426.0000000000002 1674.4299999999998 1427.4500000000003 1674.4299999999998H1448.5500000000002C1450.0000000000002 1674.4299999999998 1451.1800000000003 1675.62 1451.1800000000003 1677.08Z " fill="#ced247" fill-opacity="1" transform="matrix(1,0,0,1,-1409,-1604)"></path></svg>