<svg id="SvgjsSvg1008" xmlns="http://www.w3.org/2000/svg" version="1.1" xmlns:xlink="http://www.w3.org/1999/xlink" xmlns:svgjs="http://svgjs.com/svgjs" width="59" height="66" viewBox="0 0 59 66"><title>Shape 1</title><desc>Created with Avocode.</desc><defs id="SvgjsDefs1009"></defs><path id="SvgjsPath1010" d="M970.37 1216.72C970.37 1220.78 973.667 1224.06 977.704 1224.06C977.8109999999999 1224.06 977.9319999999999 1224.05 978.04 1224.04L982.3059999999999 1223.3999999999999V1227.6999999999998C982.3059999999999 1228.9799999999998 983.3419999999999 1229.9999999999998 984.621 1229.9999999999998H1012.92C1014.1999999999999 1229.9999999999998 1015.24 1228.9599999999998 1015.24 1227.6799999999998V1208.8999999999999C1020.19 1203.9899999999998 1023 1197.2599999999998 1023 1190.2699999999998C1023 1175.7799999999997 1011.23 1163.9999999999998 996.759 1163.9999999999998C992.843 1163.9999999999998 989.061 1164.8499999999997 985.563 1166.4999999999998C976.331 1170.7899999999997 970.37 1180.1299999999999 970.37 1190.2899999999997V1193.6999999999998L965.754 1202.5199999999998C964.785 1204.3799999999997 964.745 1206.2999999999997 965.66 1207.8099999999997C966.5609999999999 1209.3099999999997 968.284 1210.1799999999996 970.37 1210.1799999999996ZM969.616 1205.44C969.603 1205.39 969.603 1205.1200000000001 969.845 1204.66L974.73 1195.3400000000001C974.905 1195.0100000000002 974.999 1194.64 974.999 1194.2700000000002V1190.2900000000002C974.999 1181.9200000000003 979.9110000000001 1174.2300000000002 987.527 1170.6900000000003C990.4340000000001 1169.3200000000004 993.543 1168.6200000000003 996.772 1168.6200000000003C1008.7 1168.6200000000003 1018.4000000000001 1178.3300000000004 1018.4000000000001 1190.2700000000004C1018.4000000000001 1196.3100000000004 1015.8400000000001 1202.1300000000003 1011.3900000000001 1206.2200000000005C1010.9200000000001 1206.6500000000005 1010.6300000000001 1207.2700000000004 1010.6300000000001 1207.9200000000005V1225.4000000000005H986.9490000000001V1220.7400000000005C986.9490000000001 1220.0600000000004 986.653 1219.4300000000005 986.1410000000001 1218.9900000000005C985.6300000000001 1218.5600000000004 984.9570000000001 1218.3500000000004 984.2980000000001 1218.4500000000005L977.5830000000001 1219.4400000000005C976.143 1219.3600000000006 974.9990000000001 1218.1800000000005 974.9990000000001 1216.7200000000005V1207.8700000000006C974.9990000000001 1206.5900000000006 973.9630000000002 1205.5600000000006 972.6840000000001 1205.5600000000006H970.3960000000001C969.8850000000001 1205.5500000000006 969.643 1205.4400000000007 969.6160000000001 1205.4400000000007Z " fill="#ced247" fill-opacity="1" transform="matrix(1,0,0,1,-964,-1164)"></path></svg>