<svg id="SvgjsSvg1041" xmlns="http://www.w3.org/2000/svg" version="1.1" xmlns:xlink="http://www.w3.org/1999/xlink" xmlns:svgjs="http://svgjs.com/svgjs" width="81" height="58" viewBox="0 0 81 58"><title>Forma 1</title><desc>Created with Avocode.</desc><defs id="SvgjsDefs1042"></defs><path id="SvgjsPath1043" d="M1250.06 1215.7L1220.8999999999999 1197.69C1220.3899999999999 1197.38 1219.8 1197.21 1219.1999999999998 1197.21H1216.6999999999998V1195.8700000000001C1221.6499999999999 1194.49 1225.2899999999997 1189.98 1225.2899999999997 1184.65C1225.2899999999997 1178.23 1219.9999999999998 1173 1213.4999999999998 1173C1206.9999999999998 1173 1201.7099999999998 1178.23 1201.7099999999998 1184.65C1201.7099999999998 1186.4 1203.1399999999999 1187.8100000000002 1204.9099999999999 1187.8100000000002C1206.6799999999998 1187.8100000000002 1208.11 1186.4 1208.11 1184.65C1208.11 1181.71 1210.53 1179.3200000000002 1213.5 1179.3200000000002C1216.47 1179.3200000000002 1218.89 1181.7100000000003 1218.89 1184.65C1218.89 1187.5900000000001 1216.47 1189.98 1213.5 1189.98C1211.73 1189.98 1210.3 1191.4 1210.3 1193.14V1197.21H1207.8C1207.2 1197.21 1206.61 1197.38 1206.1 1197.69L1176.9399999999998 1215.7C1174.4699999999998 1217.23 1172.9999999999998 1219.8500000000001 1172.9999999999998 1222.72C1172.9999999999998 1227.29 1176.7599999999998 1231 1181.3799999999999 1231H1245.62C1250.2399999999998 1231 1254 1227.29 1254 1222.72C1254 1219.8500000000001 1252.53 1217.23 1250.06 1215.7ZM1245.62 1224.68H1181.3799999999999C1180.29 1224.68 1179.3999999999999 1223.8 1179.3999999999999 1222.72C1179.3999999999999 1222.05 1179.7499999999998 1221.43 1180.33 1221.07L1208.71 1203.54H1218.29L1246.67 1221.07C1247.25 1221.4299999999998 1247.6000000000001 1222.05 1247.6000000000001 1222.72C1247.6000000000001 1223.8 1246.71 1224.68 1245.6200000000001 1224.68Z " fill="#ced247" fill-opacity="1" transform="matrix(1,0,0,1,-1173,-1173)"></path></svg>