<svg id="SvgjsSvg1011" xmlns="http://www.w3.org/2000/svg" version="1.1" xmlns:xlink="http://www.w3.org/1999/xlink" xmlns:svgjs="http://svgjs.com/svgjs" width="82" height="82" viewBox="0 0 82 82"><title>Forma 1</title><desc>Created with Avocode.</desc><defs id="SvgjsDefs1012"></defs><path id="SvgjsPath1013" d="M1443.44 1156.99C1443.44 1152.03 1447.48 1148 1452.46 1148C1457.43 1148 1461.47 1152.03 1461.47 1156.99C1461.47 1161.95 1457.43 1165.99 1452.46 1165.99C1447.48 1165.99 1443.44 1161.95 1443.44 1156.99ZM1447.82 1156.99C1447.82 1159.54 1449.8999999999999 1161.6200000000001 1452.46 1161.6200000000001C1455.01 1161.6200000000001 1457.0900000000001 1159.5400000000002 1457.0900000000001 1156.99C1457.0900000000001 1154.44 1455.0100000000002 1152.3700000000001 1452.46 1152.3700000000001C1449.9 1152.3700000000001 1447.82 1154.44 1447.82 1156.99ZM1481.3 1212.97C1479.3899999999999 1214.78 1476.69 1215.57 1473.96 1215.57C1473.18 1215.57 1472.41 1215.5 1471.65 1215.3799999999999V1227.82C1471.65 1229.02 1470.67 1230 1469.46 1230H1402.19C1400.98 1230 1400 1229.02 1400 1227.82V1186.8799999999999C1400 1185.6799999999998 1400.98 1184.6999999999998 1402.19 1184.6999999999998H1422.41V1182.0199999999998H1413.4C1412.19 1182.0199999999998 1411.21 1181.0399999999997 1411.21 1179.8399999999997V1166.8199999999997C1411.21 1165.6099999999997 1412.19 1164.6299999999997 1413.4 1164.6299999999997H1435.8100000000002C1437.0200000000002 1164.6299999999997 1438.0000000000002 1165.6099999999997 1438.0000000000002 1166.8199999999997V1179.8299999999997C1438.0000000000002 1181.0399999999997 1437.0200000000002 1182.0199999999998 1435.8100000000002 1182.0199999999998H1426.7900000000002V1184.6999999999998H1442.7800000000002V1180.34C1442.7800000000002 1174.3 1447.1200000000001 1169.3799999999999 1452.4500000000003 1169.3799999999999C1457.7900000000002 1169.3799999999999 1462.1300000000003 1174.3 1462.1300000000003 1180.34V1184.6999999999998H1469.4600000000003C1470.6700000000003 1184.6999999999998 1471.6500000000003 1185.6799999999998 1471.6500000000003 1186.8799999999999V1203.33C1474.1400000000003 1203.8899999999999 1476.8700000000003 1203.52 1478.2900000000004 1202.1799999999998C1479.1600000000003 1201.34 1480.5500000000004 1201.3799999999999 1481.3800000000003 1202.2499999999998C1482.2200000000003 1203.1299999999999 1482.1800000000003 1204.5099999999998 1481.3000000000004 1205.3399999999997C1479.3900000000003 1207.1499999999996 1476.6900000000005 1207.9399999999996 1473.9600000000005 1207.9399999999996C1471.0600000000004 1207.9399999999996 1468.1200000000006 1207.0599999999995 1466.0300000000004 1205.5799999999997C1463.0700000000004 1203.4799999999998 1458.3000000000004 1203.3599999999997 1456.2100000000005 1205.3399999999997C1455.3300000000004 1206.1699999999996 1453.9500000000005 1206.1399999999996 1453.1200000000006 1205.2599999999998C1452.2800000000007 1204.3899999999999 1452.3200000000006 1203.0099999999998 1453.1900000000005 1202.1799999999998C1456.8000000000004 1198.7599999999998 1463.0000000000005 1198.9499999999998 1467.2700000000004 1201.2199999999998V1189.0699999999997H1404.3800000000003V1225.6299999999997H1467.2700000000004V1213.9599999999996C1466.8300000000004 1213.7299999999996 1466.4200000000005 1213.4699999999996 1466.0300000000004 1213.1999999999996C1463.0700000000004 1211.0999999999997 1458.3000000000004 1210.9899999999996 1456.2100000000005 1212.9699999999996C1455.3300000000004 1213.7999999999995 1453.9500000000005 1213.7599999999995 1453.1200000000006 1212.8899999999996C1452.2800000000007 1212.0099999999995 1452.3200000000006 1210.6299999999997 1453.1900000000005 1209.7999999999997C1457.1900000000005 1206.0199999999998 1464.3700000000006 1206.6599999999996 1468.5700000000006 1209.6399999999996C1471.4200000000005 1211.6699999999996 1476.2400000000007 1211.7399999999996 1478.2900000000006 1209.7999999999997C1479.1600000000005 1208.9699999999998 1480.5500000000006 1209.0099999999998 1481.3800000000006 1209.8799999999997C1482.2200000000005 1210.7499999999995 1482.1800000000005 1212.1399999999996 1481.3000000000006 1212.9699999999996ZM1415.59 1177.65H1433.62V1169H1415.59ZM1447.16 1180.34V1184.6999999999998H1450.27V1179.83C1450.27 1178.6299999999999 1451.25 1177.6499999999999 1452.46 1177.6499999999999C1453.66 1177.6499999999999 1454.65 1178.6299999999999 1454.65 1179.83V1184.6999999999998H1457.75V1180.34C1457.75 1176.77 1455.33 1173.75 1452.46 1173.75C1449.58 1173.75 1447.16 1176.77 1447.16 1180.34Z " fill="#ced247" fill-opacity="1" transform="matrix(1,0,0,1,-1400,-1148)"></path></svg>