<svg id="SvgjsSvg1014" xmlns="http://www.w3.org/2000/svg" version="1.1" xmlns:xlink="http://www.w3.org/1999/xlink" xmlns:svgjs="http://svgjs.com/svgjs" width="104" height="69" viewBox="0 0 104 69"><title>Forma 1</title><desc>Created with Avocode.</desc><defs id="SvgjsDefs1015"></defs><path id="SvgjsPath1016" d="M778.691 1444.07H824.976L807.1 1391.02H738.892L721.0160000000001 1444.07H765.1410000000001V1454.21H752.0570000000001V1459.99H789.4250000000002V1454.21H778.6910000000001ZM774.163 1416.46V1395.64H788.594L792.2410000000001 1416.46ZM792.646 1418.77L796.266 1439.44H774.165V1418.77ZM754.204 1416.46L757.9789999999999 1395.64H771.829V1416.46ZM771.832 1418.77V1439.44H750.038L753.785 1418.77ZM798.631 1439.44L795.012 1418.77H811.535L818.499 1439.44ZM810.759 1416.46H794.606L790.962 1395.64H803.742ZM742.25 1395.64H755.611L751.837 1416.46H735.236ZM734.457 1418.77H751.418L747.668 1439.44H727.488Z " fill="#ced247" fill-opacity="1" transform="matrix(1,0,0,1,-721,-1391)"></path></svg>