<svg id="SvgjsSvg1020" xmlns="http://www.w3.org/2000/svg" version="1.1" xmlns:xlink="http://www.w3.org/1999/xlink" xmlns:svgjs="http://svgjs.com/svgjs" width="77" height="77" viewBox="0 0 77 77"><title>Forma 1</title><desc>Created with Avocode.</desc><defs id="SvgjsDefs1021"></defs><path id="SvgjsPath1022" d="M962 1381V1458H1039V1381ZM1030.02 1402.82H1012.05V1389.98H1030.02ZM1030.02 1418.22H1012.05V1405.38H1030.02ZM1030.02 1433.62H1012.05V1420.78H1030.02ZM1030.02 1449.02H1012.05V1436.18H1030.02ZM1009.48 1449.02H991.517V1436.18H1009.48ZM988.95 1449.02H970.9830000000001V1436.18H988.95ZM970.983 1420.78H988.9499999999999V1433.62H970.983ZM970.983 1405.38H988.9499999999999V1418.22H970.983ZM970.983 1389.98H988.9499999999999V1402.82H970.983ZM991.517 1389.98H1009.48V1402.82H991.517ZM1009.48 1418.22H991.517V1405.38H1009.48ZM1009.48 1433.62H991.517V1420.78H1009.48Z " fill="#ced247" fill-opacity="1" transform="matrix(1,0,0,1,-962,-1381)"></path></svg>