<svg id="SvgjsSvg1023" xmlns="http://www.w3.org/2000/svg" version="1.1" xmlns:xlink="http://www.w3.org/1999/xlink" xmlns:svgjs="http://svgjs.com/svgjs" width="83" height="66" viewBox="0 0 83 66"><title>Shape 1</title><desc>Created with Avocode.</desc><defs id="SvgjsDefs1024"></defs><path id="SvgjsPath1025" d="M1260 1417.85C1260 1417.77 1259.99 1417.6999999999998 1259.99 1417.62C1259.99 1417.61 1259.98 1417.59 1259.98 1417.57C1259.97 1417.5 1259.96 1417.4299999999998 1259.95 1417.35C1259.94 1417.33 1259.94 1417.31 1259.93 1417.28C1259.92 1417.23 1259.91 1417.17 1259.89 1417.11C1259.88 1417.09 1259.88 1417.07 1259.8700000000001 1417.05C1259.8500000000001 1416.98 1259.8300000000002 1416.9199999999998 1259.8000000000002 1416.86C1259.7900000000002 1416.84 1259.7800000000002 1416.81 1259.7700000000002 1416.79C1259.7600000000002 1416.77 1259.7600000000002 1416.76 1259.7500000000002 1416.74L1248.9200000000003 1393.55C1248.4800000000002 1392.61 1247.5200000000002 1392 1246.4700000000003 1392H1190.5300000000002C1189.4800000000002 1392 1188.5200000000002 1392.61 1188.0800000000002 1393.55L1177.2500000000002 1416.74C1177.2400000000002 1416.76 1177.2400000000002 1416.77 1177.2300000000002 1416.78C1177.2200000000003 1416.81 1177.2100000000003 1416.84 1177.2000000000003 1416.86C1177.1700000000003 1416.9199999999998 1177.1500000000003 1416.9799999999998 1177.1300000000003 1417.04C1177.1200000000003 1417.07 1177.1200000000003 1417.09 1177.1100000000004 1417.11C1177.0900000000004 1417.1699999999998 1177.0800000000004 1417.2299999999998 1177.0700000000004 1417.28C1177.0600000000004 1417.31 1177.0600000000004 1417.33 1177.0500000000004 1417.35C1177.0400000000004 1417.4299999999998 1177.0300000000004 1417.5 1177.0200000000004 1417.57C1177.0100000000004 1417.59 1177.0100000000004 1417.61 1177.0100000000004 1417.62C1177.0100000000004 1417.6999999999998 1177.0000000000005 1417.77 1177.0000000000005 1417.85V1428.57C1177.0000000000005 1430.04 1178.2100000000005 1431.24 1179.7100000000005 1431.24H1182.4100000000005V1455.32C1182.4100000000005 1456.8 1183.6200000000006 1458 1185.1200000000006 1458H1195.9500000000005C1197.4400000000005 1458 1198.6500000000005 1456.8 1198.6500000000005 1455.32V1431.24H1238.3500000000006V1455.32C1238.3500000000006 1456.8 1239.5600000000006 1458 1241.0500000000006 1458H1251.8800000000006C1253.3700000000006 1458 1254.5900000000006 1456.8 1254.5900000000006 1455.32V1431.24H1257.2900000000006C1258.7900000000006 1431.24 1260.0000000000007 1430.05 1260.0000000000007 1428.57ZM1192.26 1397.35H1244.74L1253.06 1415.1899999999998H1183.94ZM1193.24 1452.65H1187.83V1431.24H1193.24ZM1249.17 1452.65H1243.76V1431.24H1249.17ZM1182.41 1425.89V1420.5400000000002H1254.5900000000001V1425.89Z " fill="#b9c025" fill-opacity="1" transform="matrix(1,0,0,1,-1177,-1392)"></path></svg>