<svg id="SvgjsSvg1026" xmlns="http://www.w3.org/2000/svg" version="1.1" xmlns:xlink="http://www.w3.org/1999/xlink" xmlns:svgjs="http://svgjs.com/svgjs" width="51" height="83" viewBox="0 0 51 83"><title>Forma 1</title><desc>Created with Avocode.</desc><defs id="SvgjsDefs1027"></defs><path id="SvgjsPath1028" d="M1456.73 1388.73C1451.91 1381.81 1445.43 1378 1438.5 1378C1431.57 1378 1425.09 1381.81 1420.27 1388.73C1415.58 1395.46 1413 1404.3700000000001 1413 1413.83C1413 1423.29 1415.58 1432.21 1420.27 1438.9399999999998C1423.61 1443.7299999999998 1427.74 1447.0299999999997 1432.26 1448.6V1451.33C1430.41 1451.51 1428.68 1452.31 1427.35 1453.6399999999999C1425.83 1455.1499999999999 1424.99 1457.1499999999999 1424.99 1459.29C1424.99 1460.24 1425.76 1461 1426.71 1461H1450.29C1451.24 1461 1452.01 1460.24 1452.01 1459.29C1452.01 1457.1499999999999 1451.17 1455.1499999999999 1449.65 1453.6399999999999C1448.3200000000002 1452.31 1446.5900000000001 1451.5099999999998 1444.74 1451.33V1448.6C1449.26 1447.03 1453.39 1443.73 1456.73 1438.9399999999998C1461.42 1432.2099999999998 1464 1423.2899999999997 1464 1413.83C1464 1404.37 1461.42 1395.46 1456.73 1388.73ZM1443.96 1454.71C1445.19 1454.71 1446.3500000000001 1455.19 1447.22 1456.06C1447.67 1456.5 1448.01 1457.02 1448.24 1457.58H1428.76C1428.99 1457.02 1429.33 1456.5 1429.78 1456.05C1430.6499999999999 1455.19 1431.81 1454.71 1433.04 1454.71C1434.51 1454.71 1435.7 1453.53 1435.7 1452.07V1449.46C1436.63 1449.5900000000001 1437.56 1449.67 1438.5 1449.67C1439.44 1449.67 1440.37 1449.5900000000001 1441.3 1449.46V1452.07C1441.3 1453.53 1442.49 1454.71 1443.96 1454.71ZM1453.9 1436.99C1449.74 1442.96 1444.27 1446.25 1438.5 1446.25C1432.73 1446.25 1427.26 1442.96 1423.1 1436.99C1418.81 1430.83 1416.4399999999998 1422.6 1416.4399999999998 1413.83C1416.4399999999998 1405.06 1418.8099999999997 1396.84 1423.1 1390.6799999999998C1427.26 1384.6999999999998 1432.73 1381.4199999999998 1438.5 1381.4199999999998C1444.27 1381.4199999999998 1449.74 1384.6999999999998 1453.9 1390.6799999999998C1458.19 1396.84 1460.5600000000002 1405.06 1460.5600000000002 1413.83C1460.5600000000002 1422.6 1458.1900000000003 1430.83 1453.9 1436.99ZM1451.93 1393.32C1448.29 1388.09 1443.52 1385.21 1438.5 1385.21C1433.48 1385.21 1428.71 1388.0900000000001 1425.07 1393.32C1421.27 1398.77 1419.1799999999998 1406.06 1419.1799999999998 1413.83C1419.1799999999998 1421.61 1421.2699999999998 1428.8999999999999 1425.07 1434.35C1428.71 1439.58 1433.48 1442.4499999999998 1438.5 1442.4499999999998C1443.52 1442.4499999999998 1448.29 1439.58 1451.93 1434.35C1455.73 1428.8999999999999 1457.8200000000002 1421.61 1457.8200000000002 1413.83C1457.8200000000002 1406.06 1455.7300000000002 1398.77 1451.93 1393.32ZM1421.82 1416.04L1449.36 1394.1599999999999C1449.51 1394.36 1449.6599999999999 1394.57 1449.81 1394.7799999999997C1450.28 1395.4499999999998 1450.72 1396.1499999999996 1451.1299999999999 1396.8799999999997L1422.2099999999998 1419.8599999999997C1422.0199999999998 1418.6099999999997 1421.8899999999999 1417.3399999999997 1421.8199999999997 1416.0399999999997ZM1427.19 1394.78C1430.3400000000001 1390.26 1434.3500000000001 1387.77 1438.5 1387.77C1441.77 1387.77 1444.96 1389.32 1447.7 1392.19L1421.77 1412.8C1421.95 1405.93 1423.85 1399.57 1427.19 1394.78ZM1427.19 1432.89C1425.17 1429.99 1423.67 1426.51 1422.77 1422.7L1452.31 1399.23C1454.22 1403.51 1455.24 1408.54 1455.24 1413.83C1455.24 1414.07 1455.24 1414.3 1455.24 1414.53L1429.1200000000001 1435.29C1428.45 1434.57 1427.8000000000002 1433.77 1427.19 1432.8899999999999ZM1449.81 1432.89C1446.6599999999999 1437.4 1442.6499999999999 1439.89 1438.5 1439.89C1435.89 1439.89 1433.34 1438.91 1431.02 1437.0600000000002L1455.03 1417.9800000000002C1454.44 1423.6500000000003 1452.6399999999999 1428.8300000000002 1449.81 1432.8900000000003Z " fill="#ced247" fill-opacity="1" transform="matrix(1,0,0,1,-1413,-1378)"></path></svg>