<svg id="SvgjsSvg1008" xmlns="http://www.w3.org/2000/svg" version="1.1" xmlns:xlink="http://www.w3.org/1999/xlink" xmlns:svgjs="http://svgjs.com/svgjs" width="51" height="47" viewBox="0 0 51 47"><title>Shape 1</title><desc>Created with Avocode.</desc><defs id="SvgjsDefs1009"></defs><path id="SvgjsPath1010" d="M1405.33 53.2376C1407.73 53.2376 1409.6699999999998 55.1991 1409.6699999999998 57.6186C1409.6699999999998 60.0381 1407.7299999999998 61.9995 1405.33 61.9995C1402.9399999999998 61.9995 1401 60.0381 1401 57.6186C1401 55.1991 1402.94 53.2376 1405.33 53.2376ZM1422.66 53.2376C1425.0600000000002 53.2376 1427 55.1991 1427 57.6186C1427 60.0381 1425.06 61.9995 1422.66 61.9995C1420.27 61.9995 1418.3300000000002 60.0381 1418.3300000000002 57.6186C1418.3300000000002 55.1991 1420.2700000000002 53.2376 1422.66 53.2376ZM1388 20V16L1396.66717 16L1396.6699999999998 15.9996H1398.83L1400.09 24.7616V24.761400000000002H1439L1428.41 48.856700000000004H1399.1100000000001L1395.02313 20.000000000000004ZM1432.33 29.1425H1400.72L1402.88 44.4756H1425.5900000000001Z " fill="#f1b333" fill-opacity="1" transform="matrix(1,0,0,1,-1388,-15)"></path></svg>