<svg id="SvgjsSvg1017" xmlns="http://www.w3.org/2000/svg" version="1.1" xmlns:xlink="http://www.w3.org/1999/xlink" xmlns:svgjs="http://svgjs.com/svgjs" width="204" height="142" viewBox="0 0 204 142"><title>hover</title><desc>Created with Avocode.</desc><defs id="SvgjsDefs1018"><clipPath id="SvgjsClipPath1022"><path id="SvgjsPath1021" d="M974 589V541H1022V589Z " fill="#ffffff"></path></clipPath></defs><path id="SvgjsPath1019" d="M896 636V494H1100V636Z " fill="#ced247" fill-opacity="1" transform="matrix(1,0,0,1,-896,-494)"></path><path id="SvgjsPath1020" d="M974 589V541H1022V589Z " fill-opacity="0" fill="#ffffff" stroke-dashoffset="0" stroke-linejoin="miter" stroke-linecap="butt" stroke-opacity="1" stroke="#ffffff" stroke-miterlimit="50" stroke-width="6" clip-path="url(&quot;#SvgjsClipPath1022&quot;)" transform="matrix(1,0,0,1,-896,-494)"></path><path id="SvgjsPath1023" d="M989.692 556.673C986.124 560.222 986.113 565.984 989.679 569.531C992.789 572.6239999999999 997.607 572.995 1001.12 570.7239999999999L1006.42 575.9989999999999L1009 573.4279999999999L1003.72 568.1689999999999C1006.11 564.6289999999999 1005.74 559.7969999999999 1002.6 556.6759999999998C999.037 553.1289999999998 993.26 553.1239999999998 989.692 556.6729999999998ZM1000.03 566.942C997.8919999999999 569.068 994.4159999999999 569.069 992.279 566.944C990.143 564.819 990.144 561.361 992.281 559.236C994.419 557.11 997.896 557.109 1000.03 559.234C1002.17 561.3580000000001 1002.17 564.816 1000.03 566.942Z " fill="#ffffff" fill-opacity="1" transform="matrix(1,0,0,1,-896,-494)"></path></svg>