<svg id="SvgjsSvg1030" xmlns="http://www.w3.org/2000/svg" version="1.1" xmlns:xlink="http://www.w3.org/1999/xlink" xmlns:svgjs="http://svgjs.com/svgjs" width="12" height="18" viewBox="0 0 12 18"><title>Shape 1</title><desc>Created with Avocode.</desc><defs id="SvgjsDefs1031"></defs><path id="SvgjsPath1032" d="M753 2131.38C755.221 2131.38 757.028 2129.5 757.028 2127.19C757.028 2124.88 755.221 2123 753 2123C750.779 2123 748.972 2124.88 748.972 2127.19C748.972 2129.5 750.779 2131.38 753 2131.38ZM753 2131.92C749.692 2131.92 747 2134.7200000000003 747 2138.16V2140.3199999999997C747 2140.7 747.293 2140.9999999999995 747.654 2140.9999999999995H758.346C758.707 2140.9999999999995 759 2140.6999999999994 759 2140.3199999999997V2138.16C759 2134.72 756.308 2131.92 753 2131.92Z " fill="#ced247" fill-opacity="1" transform="matrix(1,0,0,1,-747,-2123)"></path></svg>