<svg id="SvgjsSvg1014" xmlns="http://www.w3.org/2000/svg" version="1.1" xmlns:xlink="http://www.w3.org/1999/xlink" xmlns:svgjs="http://svgjs.com/svgjs" width="15" height="21" viewBox="0 0 15 21"><title>Forma 1</title><desc>Created with Avocode.</desc><defs id="SvgjsDefs1015"></defs><path id="SvgjsPath1016" d="M672.646 88.9775C672.568 88.7106 672.411 88.42620000000001 672.294 88.1774C670.901 85.10180000000001 667.857 83.9997 665.399 83.9997C662.108 83.9997 658.484 86.0263 658 90.2039V91.0574C658 91.093 658.013 91.41290000000001 658.032 91.57300000000001C658.3040000000001 93.56410000000001 660.014 95.67970000000001 661.291 97.6704C662.6650000000001 99.8038 664.091 101.902 665.504 104C666.375 102.631 667.243 101.244 668.095 99.9108C668.327 99.5196 668.596 99.12859999999999 668.828 98.755C668.983 98.5064 669.279 98.25739999999999 669.414 98.02619999999999C670.788 95.71529999999998 673 93.3864 673 91.09299999999999V90.1509C673 89.90209999999999 672.665 89.0311 672.646 88.97749999999999ZM665.459 93.2621C664.492 93.2621 663.433 92.8178 662.91 91.5909C662.832 91.3957 662.8389999999999 91.00410000000001 662.8389999999999 90.9685V90.4171C662.8389999999999 88.85310000000001 664.284 88.1418 665.5419999999999 88.1418C667.0909999999999 88.1418 668.2879999999999 89.2797 668.2879999999999 90.70230000000001C668.2879999999999 92.1242 667.007 93.2621 665.459 93.2621Z " fill="#ced247" fill-opacity="1" transform="matrix(1,0,0,1,-658,-83)"></path></svg>