<svg id="SvgjsSvg1017" xmlns="http://www.w3.org/2000/svg" version="1.1" xmlns:xlink="http://www.w3.org/1999/xlink" xmlns:svgjs="http://svgjs.com/svgjs" width="16" height="22" viewBox="0 0 16 22"><title>Forma 1 копия 3</title><desc>Created with Avocode.</desc><defs id="SvgjsDefs1018"></defs><path id="SvgjsPath1019" d="M1401.34 151.355C1401.3 151.647 1401.1499999999999 151.869 1400.8799999999999 152.022L1397.78 153.798C1397.6399999999999 153.89000000000001 1397.47 153.956 1397.27 153.995C1397.07 154.03300000000002 1396.8799999999999 154.042 1396.7 154.02C1396.69 154.01600000000002 1396.65 154.01000000000002 1396.5800000000002 154C1396.5200000000002 153.989 1396.44 153.971 1396.3400000000001 153.945C1396.1100000000001 153.882 1395.7400000000002 153.74099999999999 1395.2400000000002 153.522C1394.7400000000002 153.302 1394.1600000000003 152.935 1393.4900000000002 152.41899999999998C1392.8200000000002 151.904 1392.0900000000001 151.20499999999998 1391.3000000000002 150.32199999999997C1390.5100000000002 149.43999999999997 1389.7200000000003 148.307 1388.9300000000003 146.92499999999998C1388.3000000000002 145.84799999999998 1387.8100000000004 144.84699999999998 1387.4500000000003 143.92199999999997C1387.0900000000004 142.99699999999996 1386.8300000000004 142.15999999999997 1386.6600000000003 141.41099999999997C1386.4900000000002 140.66199999999998 1386.4000000000003 139.99799999999996 1386.3700000000003 139.41799999999998C1386.3400000000004 138.837 1386.3500000000004 138.34599999999998 1386.3900000000003 137.94199999999998C1386.4300000000003 137.539 1386.4900000000002 137.22899999999998 1386.5600000000004 137.01099999999997C1386.6300000000003 136.79299999999998 1386.6700000000003 136.67199999999997 1386.6800000000003 136.64799999999997C1386.7500000000002 136.48299999999998 1386.8500000000004 136.32199999999997 1386.9800000000002 136.16699999999997C1387.1200000000003 136.01199999999997 1387.2600000000002 135.896 1387.4100000000003 135.81799999999998L1390.5100000000002 134.02499999999998C1390.7300000000002 133.89899999999997 1390.9500000000003 133.86499999999998 1391.1700000000003 133.92399999999998C1391.3300000000004 133.96699999999998 1391.4600000000003 134.051 1391.5600000000004 134.176C1391.6600000000003 134.301 1391.7300000000005 134.44199999999998 1391.7800000000004 134.6L1392.7500000000005 138.867C1392.8100000000004 139.093 1392.7800000000004 139.31699999999998 1392.6700000000005 139.536C1392.5600000000006 139.757 1392.4000000000005 139.925 1392.2000000000005 140.042L1391.0500000000004 140.703C1391.0200000000004 140.721 1390.9900000000005 140.755 1390.9600000000005 140.805C1390.9200000000005 140.856 1390.9000000000005 140.899 1390.8900000000006 140.936C1390.8700000000006 141.207 1390.9000000000005 141.531 1390.9900000000005 141.90900000000002C1391.0500000000004 142.24300000000002 1391.1900000000005 142.663 1391.3800000000006 143.169C1391.5700000000006 143.675 1391.8800000000006 144.27900000000002 1392.2900000000006 144.983C1392.6900000000007 145.696 1393.0700000000006 146.266 1393.4100000000005 146.695C1393.7600000000004 147.123 1394.0600000000006 147.44899999999998 1394.3000000000006 147.674C1394.5500000000006 147.899 1394.7500000000007 148.047 1394.9000000000005 148.118L1395.1100000000006 148.226C1395.1400000000006 148.233 1395.1800000000005 148.234 1395.2400000000007 148.231C1395.3000000000006 148.227 1395.3500000000006 148.216 1395.3800000000008 148.198L1396.7100000000007 147.411C1396.9900000000007 147.274 1397.2700000000007 147.245 1397.5600000000006 147.324C1397.7700000000007 147.37900000000002 1397.9300000000005 147.46 1398.0300000000007 147.567L1398.0500000000006 147.572L1401.0400000000006 150.624C1401.2500000000007 150.852 1401.3500000000006 151.096 1401.3400000000006 151.355Z " fill="#969c1b" fill-opacity="1" transform="matrix(1,0,0,1,-1386,-133)"></path></svg>