<svg id="SvgjsSvg1011" xmlns="http://www.w3.org/2000/svg" version="1.1" xmlns:xlink="http://www.w3.org/1999/xlink" xmlns:svgjs="http://svgjs.com/svgjs" width="34" height="34" viewBox="0 0 34 34"><title>Forma 1</title><desc>Created with Avocode.</desc><defs id="SvgjsDefs1012"></defs><path id="SvgjsPath1013" d="M1425.76 106C1425.57 106 1425.37 105.953 1425.2 105.858L1416 100.943L1406.8 105.858C1406.3999999999999 106.07600000000001 1405.8999999999999 106.04 1405.53 105.765C1405.16 105.489 1404.97 105.022 1405.05 104.56L1406.8 94.1499L1399.36 86.777C1399.03 86.45 1398.9199999999998 85.9604 1399.06 85.51480000000001C1399.2 85.0691 1399.58 84.7442 1400.04 84.67680000000001L1410.32 83.15810000000002L1414.9099999999999 73.68600000000002C1415.12 73.26580000000003 1415.54 72.99960000000002 1415.9999999999998 72.99960000000002C1416.4599999999998 72.99960000000002 1416.8799999999999 73.26580000000001 1417.0899999999997 73.68600000000002L1421.6799999999996 83.15810000000002L1431.9599999999996 84.67680000000001C1432.4199999999996 84.74420000000002 1432.7999999999995 85.06910000000002 1432.9399999999996 85.51480000000001C1433.0799999999997 85.9604 1432.9699999999996 86.45 1432.6399999999996 86.77700000000002L1425.1999999999996 94.15000000000002L1426.9499999999996 104.56000000000002C1427.0299999999995 105.02200000000002 1426.8399999999997 105.48900000000002 1426.4699999999996 105.76500000000001C1426.2599999999995 105.92100000000002 1426.0099999999995 106.00000000000001 1425.7599999999995 106.00000000000001ZM1402.81 86.7552L1408.95 92.8383C1409.24 93.1213 1409.3700000000001 93.5286 1409.3 93.92830000000001L1407.85 102.51700000000001L1415.4399999999998 98.46190000000001C1415.7899999999997 98.27340000000001 1416.2099999999998 98.27340000000001 1416.5599999999997 98.46190000000001L1424.1499999999996 102.51700000000001L1422.6999999999996 93.92830000000001C1422.6299999999997 93.52860000000001 1422.7599999999995 93.1213 1423.0499999999995 92.8383L1429.1899999999996 86.7552L1420.7099999999996 85.502C1420.3099999999995 85.44359999999999 1419.9699999999996 85.19189999999999 1419.7899999999995 84.8283L1415.9999999999995 77.0132L1412.2099999999996 84.8283C1412.0299999999995 85.1919 1411.6899999999996 85.4436 1411.2899999999995 85.502Z " fill="#989898" fill-opacity="1" transform="matrix(1,0,0,1,-1399,-72)"></path></svg>